<?xml version="1.0" encoding="UTF-8"?>
<svg width="177px" height="73px" viewBox="0 0 177 73" version="1.1" xmlns="http://www.w3.org/2000/svg" xmlns:xlink="http://www.w3.org/1999/xlink">
    <!-- Generator: sketchtool 63 (101010) - https://sketch.com -->
    <title>1EF7B2FC-7FA9-4547-AE86-F22F4BCADC07</title>
    <desc>Created with sketchtool.</desc>
    <g id="Designs" stroke="none" stroke-width="1" fill="none" fill-rule="evenodd">
        <g id="Marketing-Landing-Page-Mobile" transform="translate(-15.000000, -5434.000000)" fill="#FEFEFE">
            <g id="Footer/new/mobile" transform="translate(0.000000, 5373.000000)">
                <g id="logos/ASCM_Logo_White" transform="translate(15.000000, 61.000000)">
                    <path d="M2.10351686,54.1593144 L0.148821558,60.1958718 L1.4594843,60.1958718 L1.92112167,58.7283499 L3.90809931,58.7283499 L4.40363313,60.1958718 L5.79661583,60.1958718 L3.68535121,54.1593144 L2.10351686,54.1593144 Z M2.87022228,55.3682421 L2.90250462,55.3682421 L3.64338417,57.7020544 L2.13579919,57.7020544 L2.87022228,55.3682421 Z M7.64703919,55.6840502 C7.64703919,56.9430805 10.7461432,56.1689142 10.7461432,58.3879754 C10.7461432,59.755292 9.65015799,60.2967235 8.46216811,60.2967235 C7.39039464,60.2967235 6.26212708,59.9476214 6.15398126,58.3782781 L7.3096888,58.2053432 C7.40814992,58.7887963 7.62282744,59.2801252 8.49606456,59.2801252 C9.02388072,59.2801252 9.48551809,59.0958769 9.48551809,58.5382832 C9.48551809,57.2776367 6.37672936,58.1536244 6.37672936,55.8682985 C6.37672936,54.6933113 7.35004172,54.0500583 8.55417277,54.0500583 C9.61787566,54.0500583 10.5895739,54.3829983 10.6799644,55.8181959 L9.51780042,55.9523416 C9.46937692,55.3850507 9.23855824,55.0440296 8.53641748,55.0440296 C7.92628138,55.0440296 7.64703919,55.3026238 7.64703919,55.6840502 M12.9024417,55.6840502 C12.9024417,56.9430805 16.0015457,56.1689142 16.0015457,58.3879754 C16.0015457,59.755292 14.9055605,60.2967235 13.7175706,60.2967235 C12.6457971,60.2967235 11.5175296,59.9476214 11.4093838,58.3782781 L12.5650913,58.2053432 C12.6635524,58.7887963 12.8766158,59.2801252 13.7514671,59.2801252 C14.2792832,59.2801252 14.7409206,59.0958769 14.7409206,58.5382832 C14.7409206,57.2776367 11.6321319,58.1536244 11.6321319,55.8682985 C11.6321319,54.6933113 12.6054442,54.0500583 13.8095753,54.0500583 C14.8732782,54.0500583 15.8449764,54.3829983 15.9353669,55.8181959 L14.7732029,55.9523416 C14.7247794,55.3850507 14.4939607,55.0440296 13.79182,55.0440296 C13.1816839,55.0440296 12.9024417,55.3026238 12.9024417,55.6840502 M16.7430709,57.2023211 C16.7430709,55.4099404 17.7244539,54.0507048 19.6533233,54.0507048 C21.5902633,54.0507048 22.3908652,55.4099404 22.3908652,57.0859538 C22.3908652,59.0464208 21.4579058,60.29737 19.5209657,60.29737 C17.5501293,60.29737 16.7430709,59.0043992 16.7430709,57.2023211 M21.0802024,57.1619158 C21.0802024,55.7671236 20.5427016,55.1351841 19.6291116,55.1351841 C18.6638698,55.1351841 18.0537337,55.7768208 18.0537337,57.1780779 C18.0537337,58.6213566 18.6299733,59.2128907 19.5710034,59.2128907 C20.4619958,59.2128907 21.0802024,58.6536809 21.0802024,57.1619158 M23.2066398,57.2449892 C23.2066398,55.3265438 24.2122345,54.0497351 26.0846098,54.0497351 C27.4194843,54.0497351 28.3685849,54.7010691 28.4347637,56.2186936 L27.2709856,56.3188988 C27.1967362,55.4606895 26.8351741,55.1099712 26.0668545,55.1099712 C25.0935422,55.1099712 24.5173025,55.7419106 24.5173025,57.1787244 C24.5173025,58.6624084 25.0370481,59.2377804 25.976464,59.2377804 C26.8351741,59.2377804 27.1305574,58.7868569 27.2709856,58.1533012 L28.4170084,58.3537116 C28.2265426,59.7969903 27.0320963,60.2980165 25.9603228,60.2980165 C23.9814158,60.2980165 23.2066398,59.1117158 23.2066398,57.2449892 M29.4431024,60.1971648 L30.7117981,60.1971648 L30.7117981,54.1589911 L29.4431024,54.1589911 L29.4431024,60.1971648 Z M35.0988058,54.1593144 L37.2100704,60.1958718 L35.8154736,60.1958718 L35.3215539,58.7283499 L33.3345763,58.7283499 L32.8729389,60.1958718 L31.5622762,60.1958718 L33.5153574,54.1593144 L35.0988058,54.1593144 Z M34.3159592,55.3682421 L34.2820628,55.3682421 L33.5492538,57.7020544 L35.0568388,57.7020544 L34.3159592,55.3682421 Z M38.691991,60.1965183 L38.691991,55.2444401 L36.935832,55.2444401 L36.935832,54.1583446 L41.708775,54.1583446 L41.708775,55.2444401 L39.9703714,55.2444401 L39.9703714,60.1965183 L38.691991,60.1965183 Z M42.5481157,60.1971648 L43.8184256,60.1971648 L43.8184256,54.1589911 L42.5481157,54.1589911 L42.5481157,60.1971648 Z M44.9040804,57.2023211 C44.9040804,55.4099404 45.8854634,54.0507048 47.8143328,54.0507048 C49.7512728,54.0507048 50.5518747,55.4099404 50.5518747,57.0859538 C50.5518747,59.0464208 49.6205294,60.29737 47.6835894,60.29737 C45.7127529,60.29737 44.9040804,59.0043992 44.9040804,57.2023211 M49.241212,57.1619158 C49.241212,55.7671236 48.7053252,55.1351841 47.7901211,55.1351841 C46.8248793,55.1351841 46.2147432,55.7768208 46.2147432,57.1780779 C46.2147432,58.6213566 46.7925969,59.2128907 47.7320129,59.2128907 C48.6230053,59.2128907 49.241212,58.6536809 49.241212,57.1619158 M55.1027153,60.1965183 L52.802599,55.9345633 L52.802599,60.1965183 L51.640435,60.1965183 L51.640435,54.1583446 L53.1577047,54.1583446 L55.4158539,58.4364618 L55.4158539,54.1583446 L56.5715615,54.1583446 L56.5715615,60.1965183 L55.1027153,60.1965183 Z M60.9019137,60.1965183 L59.633218,60.1965183 L59.633218,54.1583446 L63.3924957,54.1583446 L63.3924957,55.2347428 L60.9019137,55.2347428 L60.9019137,56.7685294 L63.1939594,56.7685294 L63.1939594,57.8287655 L60.9019137,57.8287655 L60.9019137,60.1965183 Z M64.0410478,57.2023211 C64.0410478,55.4099404 65.0224308,54.0507048 66.9513002,54.0507048 C68.8898543,54.0507048 69.6888421,55.4099404 69.6888421,57.0859538 C69.6888421,59.0464208 68.7574968,60.29737 66.8189426,60.29737 C64.8497203,60.29737 64.0410478,59.0043992 64.0410478,57.2023211 M68.3781793,57.1619158 C68.3781793,55.7671236 67.8422926,55.1351841 66.9270884,55.1351841 C65.9618467,55.1351841 65.3517106,55.7768208 65.3517106,57.1780779 C65.3517106,58.6213566 65.9295643,59.2128907 66.8689802,59.2128907 C67.7599726,59.2128907 68.3781793,58.6536809 68.3781793,57.1619158 M75.4029765,60.1965183 L74.0342056,60.1965183 L72.8542863,57.9031113 L72.0391574,57.9031113 L72.0391574,60.1965183 L70.7769181,60.1965183 L70.7769181,54.1583446 L73.1028603,54.1583446 C74.5862335,54.1583446 75.0817673,54.9680676 75.0817673,55.8602175 C75.0817673,56.7523673 74.6604829,57.3034961 74.0503468,57.5863335 L75.4029765,60.1965183 Z M72.6896464,56.8945941 C73.2836413,56.8945941 73.7694905,56.6683242 73.7694905,55.9862821 C73.7694905,55.4092939 73.4159989,55.1927213 72.739684,55.1927213 L72.0391574,55.1927213 L72.0391574,56.8945941 L72.6896464,56.8945941 Z M2.30431297,66.3424934 C2.30431297,68.1591173 6.82383968,67.0406976 6.82383968,70.2408003 C6.82383968,72.2174294 5.22586417,72.9996768 3.49391697,72.9996768 C1.93145202,72.9996768 0.285053006,72.4938019 0.126869571,70.2294868 L1.81200739,69.9773575 C1.95566377,70.821021 2.26880241,71.5305387 3.54234047,71.5305387 C4.31227413,71.5305387 4.98536078,71.2654797 4.98536078,70.4589891 C4.98536078,68.6423652 0.452921141,69.9046279 0.452921141,66.6059362 C0.452921141,64.908912 1.8717297,63.9828216 3.62627454,63.9828216 C5.17744067,63.9828216 6.59624923,64.4644533 6.7286068,66.5348228 L5.03217017,66.725536 C4.96114903,65.9077319 4.62379865,65.416403 3.60206279,65.416403 C2.71268449,65.416403 2.30431297,65.7881321 2.30431297,66.3424934 M13.2877313,69.4470779 L13.2877313,64.1394327 L15.1391232,64.1394327 L15.1391232,69.7121369 C15.1391232,72.0249384 13.8058628,72.9978989 11.6300335,72.9978989 C9.22338554,72.9978989 8.2032638,71.9392791 8.2032638,69.6652667 L8.2032638,64.1394327 L10.0659544,64.1394327 L10.0659544,69.4115212 C10.0659544,70.7707567 10.4146037,71.446334 11.7010546,71.446334 C12.9277833,71.446334 13.2877313,70.8677295 13.2877313,69.4470779 M19.6023172,68.544261 C20.5530319,68.544261 21.3100527,68.2678885 21.3100527,66.9910798 C21.3100527,65.8726601 20.6482648,65.6318443 19.7459736,65.6318443 L18.8582094,65.6318443 L18.8582094,68.544261 L19.6023172,68.544261 Z M18.8582094,72.8547024 L17.0181164,72.8547024 L17.0181164,64.138463 L20.3125286,64.138463 C22.5351672,64.138463 23.209868,65.4750716 23.209868,66.8585503 C23.209868,68.9547792 22.0670734,70.0376423 19.80731,70.0376423 L18.8582094,70.0376423 L18.8582094,72.8547024 Z M27.1126407,68.544261 C28.0617413,68.544261 28.8203762,68.2678885 28.8203762,66.9910798 C28.8203762,65.8726601 28.1585883,65.6318443 27.2562971,65.6318443 L26.3669188,65.6318443 L26.3669188,68.544261 L27.1126407,68.544261 Z M26.3669188,72.8547024 L24.5268258,72.8547024 L24.5268258,64.138463 L27.8212379,64.138463 C30.0454907,64.138463 30.7185774,65.4750716 30.7185774,66.8585503 C30.7185774,68.9547792 29.5773969,70.0376423 27.3160194,70.0376423 L26.3669188,70.0376423 L26.3669188,72.8547024 Z M32.0376335,64.1391095 L32.0376335,72.8553489 L37.6160208,72.8553489 L37.6160208,71.289238 L33.8890254,71.289238 L33.8890254,64.1391095 L32.0376335,64.1391095 Z M42.6807961,64.1391095 L40.8407031,67.8709465 L40.7809808,67.8709465 L38.8698666,64.1391095 L36.8376937,64.1391095 L39.8544778,69.5922138 L39.8544778,72.8553489 L41.7187826,72.8553489 L41.7187826,69.5663544 L44.5563997,64.1391095 L42.6807961,64.1391095 Z M47.4175829,68.5932323 C47.4175829,65.8230423 48.884815,63.9821752 51.6142863,63.9821752 C53.560911,63.9821752 54.944209,64.9211952 55.0394419,67.1127807 L53.3446194,67.2582399 C53.2364736,66.0153717 52.7070433,65.5111131 51.5884604,65.5111131 C50.171266,65.5111131 49.3303112,66.42589 49.3303112,68.4962595 C49.3303112,70.6393586 50.0873319,71.4700923 51.457717,71.4700923 C52.7070433,71.4700923 53.1396266,70.8203745 53.3446194,69.9055976 L55.0168443,70.1932836 C54.7392162,72.2765828 52.9975843,72.9990303 51.4335052,72.9990303 C48.5474646,72.9990303 47.4175829,71.2906926 47.4175829,68.5932323 M61.6482812,64.1391095 L61.6482812,67.6770008 L58.3183585,67.6770008 L58.3183585,64.1391095 L56.4669667,64.1391095 L56.4669667,72.8553489 L58.3183585,72.8553489 L58.3183585,69.2802846 L61.6482812,69.2802846 L61.6482812,72.8553489 L63.5109719,72.8553489 L63.5109719,64.1391095 L61.6482812,64.1391095 Z M68.6855071,65.8847817 L68.7339306,65.8847817 L69.8153888,69.2545868 L67.6153478,69.2545868 L68.6855071,65.8847817 Z M67.5669243,64.1392711 L64.7180083,72.8538943 L66.6307366,72.8538943 L67.3038233,70.7366546 L70.1995486,70.7366546 L70.9210588,72.8538943 L72.9532317,72.8538943 L69.8751111,64.1392711 L67.5669243,64.1392711 Z M74.1412215,72.8553489 L75.9926134,72.8553489 L75.9926134,64.1391095 L74.1412215,64.1391095 L74.1412215,72.8553489 Z M83.4262663,64.1391095 L83.4262663,70.3146613 L80.1318542,64.1391095 L77.9189002,64.1391095 L77.9189002,72.8553489 L79.6153368,72.8553489 L79.6153368,66.7024241 L82.9694713,72.8553489 L85.1081759,72.8553489 L85.1081759,64.1391095 L83.4262663,64.1391095 Z M95.9482607,64.1391095 L94.1194665,70.5053745 L94.0726571,70.5053745 L92.2325641,64.1391095 L89.4675822,64.1391095 L89.4675822,72.8553489 L91.1624048,72.8553489 L91.1624048,66.0042199 L91.2108283,66.0042199 L93.1945777,72.8553489 L94.8668025,72.8553489 L96.9215731,66.0155334 L96.9699966,66.0155334 L96.9699966,72.8553489 L98.7003297,72.8553489 L98.7003297,64.1391095 L95.9482607,64.1391095 Z M103.88003,65.8847817 L103.928454,65.8847817 L105.011526,69.2545868 L102.811485,69.2545868 L103.88003,65.8847817 Z M102.763061,64.1392711 L99.9141454,72.8538943 L101.82526,72.8538943 L102.49996,70.7366546 L105.395686,70.7366546 L106.117196,72.8538943 L108.149369,72.8538943 L105.071248,64.1392711 L102.763061,64.1392711 Z M114.844725,64.1391095 L114.844725,70.3146613 L111.548698,64.1391095 L109.338973,64.1391095 L109.338973,72.8553489 L111.033795,72.8553489 L111.033795,66.7024241 L114.38793,72.8553489 L116.526634,72.8553489 L116.526634,64.1391095 L114.844725,64.1391095 Z M121.70004,65.8847817 L121.748463,65.8847817 L122.829921,69.2545868 L120.631494,69.2545868 L121.70004,65.8847817 Z M120.583071,64.1392711 L117.734155,72.8538943 L119.645269,72.8538943 L120.318356,70.7366546 L123.214081,70.7366546 L123.937205,72.8538943 L125.969378,72.8538943 L122.891258,64.1392711 L120.583071,64.1392711 Z M132.630031,71.7829912 C132.258784,72.5652386 131.209608,73 130.142677,73 C127.519737,73 126.451192,71.1817598 126.451192,68.6426884 C126.451192,65.8240121 127.892598,63.9831449 130.670493,63.9831449 C132.570308,63.9831449 133.951992,64.8365056 134.110176,67.0297073 L132.378229,67.1961773 C132.281382,66.270087 131.884309,65.5104666 130.634983,65.5104666 C129.108028,65.5104666 128.373605,66.6062594 128.373605,68.472986 C128.373605,70.5417393 129.046692,71.5066187 130.57526,71.5066187 C131.739038,71.5066187 132.352403,70.8326577 132.352403,69.9906105 L132.352403,69.677065 L130.76734,69.677065 L130.76734,68.3145971 L134.181197,68.3145971 L134.181197,72.8545408 L132.833409,72.8545408 L132.630031,71.7829912 Z M135.995303,64.1391095 L135.995303,72.8553489 L141.730259,72.8553489 L141.730259,71.289238 L137.846694,71.289238 L137.846694,69.2544252 L141.297676,69.2544252 L141.297676,67.738417 L137.846694,67.738417 L137.846694,65.6922907 L141.513968,65.6922907 L141.513968,64.1391095 L135.995303,64.1391095 Z M149.727885,64.1391095 L147.89909,70.5053745 L147.852281,70.5053745 L146.012188,64.1391095 L143.247206,64.1391095 L143.247206,72.8553489 L144.942029,72.8553489 L144.942029,66.0042199 L144.988838,66.0042199 L146.974201,72.8553489 L148.644812,72.8553489 L150.701197,66.0155334 L150.74962,66.0155334 L150.74962,72.8553489 L152.479953,72.8553489 L152.479953,64.1391095 L149.727885,64.1391095 Z M154.428354,64.1391095 L154.428354,72.8553489 L160.16331,72.8553489 L160.16331,71.289238 L156.279746,71.289238 L156.279746,69.2544252 L159.729113,69.2544252 L159.729113,67.738417 L156.279746,67.738417 L156.279746,65.6922907 L159.947019,65.6922907 L159.947019,64.1391095 L154.428354,64.1391095 Z M167.185364,64.1391095 L167.185364,70.3146613 L163.892565,64.1391095 L161.679612,64.1391095 L161.679612,72.8553489 L163.376048,72.8553489 L163.376048,66.7024241 L166.730183,72.8553489 L168.868887,72.8553489 L168.868887,64.1391095 L167.185364,64.1391095 Z M170.039929,64.1391095 L170.039929,65.7052204 L172.601532,65.7052204 L172.601532,72.8553489 L174.464223,72.8553489 L174.464223,65.7052204 L177,65.7052204 L177,64.1391095 L170.039929,64.1391095 Z M10.7161206,32.5776923 L30.4325559,32.5776923 L30.4325559,28.0878512 L10.7161206,28.0878512 L10.7161206,32.5776923 Z M0,12.9035253 L30.43417,12.9035253 L30.43417,17.3949827 L0,17.3949827 L0,43.2705608 L41.1502907,43.2705608 L41.1502907,2.21065682 L0,2.21065682 L0,12.9035253 Z M135.847127,2.21485898 L135.847127,43.2731467 L146.564862,43.2731467 L146.564862,12.9077275 L151.063405,12.9077275 L151.063405,43.2731467 L161.781139,43.2731467 L161.781139,12.9077275 L166.279683,12.9077275 L166.279683,43.2731467 L176.997417,43.2731467 L176.997417,2.21485898 L135.847127,2.21485898 Z M133.050831,7.69317626 L124.407236,0 L124.407236,2.21906113 L94.2523083,2.21906113 L86.3366801,17.3936897 L57.3229328,17.3936897 L57.3229328,12.9038486 L85.7459134,12.9038486 L85.7459134,2.21906113 L46.5987415,2.21906113 L46.5987415,28.0897906 L80.7534505,28.0897906 L78.4097531,32.5812479 L52.5935709,32.5812479 L52.5935709,30.1181386 L43.9499761,37.8016175 L52.5935709,45.49641 L52.5935709,43.2660354 L85.7459134,43.2660354 L90.1879625,34.746974 L94.1683743,43.2660354 L130.400451,43.2757327 L130.400451,32.5909452 L101.588469,32.5909452 L96.5104576,22.6463836 L101.588469,12.9038486 L124.407236,12.9038486 L124.407236,15.375039 L133.050831,7.69317626 Z" id="ascm-logo-white"></path>
                </g>
            </g>
        </g>
    </g>
</svg>